<svg xmlns="http://www.w3.org/2000/svg" width="1280" height="720" viewBox="0 0 1280 720">
  <defs>
    <radialGradient id="bgGrad" cx="0.5" cy="0.5" r="0.8">
      <stop offset="0" stop-color="#0e1738"/>
      <stop offset="1" stop-color="#02030a"/>
    </radialGradient>
  </defs>
  <rect width="1280" height="720" fill="url(#bgGrad)"/>
  <!-- distant stars (small + scattered) -->
  <g fill="#ffffff">
    <circle cx="60" cy="80" r="1.2" opacity="0.8"/>
    <circle cx="220" cy="40" r="0.8" opacity="0.6"/>
    <circle cx="340" cy="180" r="1.4" opacity="0.9"/>
    <circle cx="480" cy="120" r="0.7" opacity="0.5"/>
    <circle cx="600" cy="60" r="1.1" opacity="0.8"/>
    <circle cx="760" cy="220" r="0.9" opacity="0.7"/>
    <circle cx="880" cy="80" r="1.3" opacity="0.9"/>
    <circle cx="1020" cy="160" r="0.8" opacity="0.6"/>
    <circle cx="1180" cy="40" r="1.0" opacity="0.7"/>
    <circle cx="100" cy="300" r="0.9" opacity="0.6"/>
    <circle cx="260" cy="380" r="1.2" opacity="0.8"/>
    <circle cx="420" cy="320" r="0.7" opacity="0.5"/>
    <circle cx="560" cy="420" r="1.4" opacity="0.9"/>
    <circle cx="700" cy="360" r="0.9" opacity="0.7"/>
    <circle cx="840" cy="440" r="1.1" opacity="0.8"/>
    <circle cx="980" cy="380" r="0.8" opacity="0.6"/>
    <circle cx="1120" cy="320" r="1.3" opacity="0.9"/>
    <circle cx="160" cy="560" r="1.0" opacity="0.7"/>
    <circle cx="300" cy="640" r="0.8" opacity="0.6"/>
    <circle cx="440" cy="600" r="1.2" opacity="0.8"/>
    <circle cx="600" cy="660" r="0.7" opacity="0.5"/>
    <circle cx="740" cy="580" r="1.4" opacity="0.9"/>
    <circle cx="880" cy="640" r="0.9" opacity="0.7"/>
    <circle cx="1040" cy="600" r="1.1" opacity="0.8"/>
    <circle cx="1200" cy="680" r="0.8" opacity="0.6"/>
  </g>
  <!-- a couple of bright stars with cross flare -->
  <g stroke="#ffffff" stroke-width="0.6" opacity="0.6">
    <line x1="350" y1="120" x2="350" y2="140"/>
    <line x1="340" y1="130" x2="360" y2="130"/>
    <line x1="900" y1="500" x2="900" y2="520"/>
    <line x1="890" y1="510" x2="910" y2="510"/>
  </g>
  <!-- distant nebula blob -->
  <ellipse cx="320" cy="500" rx="260" ry="80" fill="#2a4a8f" opacity="0.18"/>
  <ellipse cx="980" cy="220" rx="220" ry="70" fill="#7a2a6f" opacity="0.15"/>
</svg>
